:SAMPLES-PER-SECOND 30
:FULLY-SPECIFIED
:DEGREES
2117
root  -62.2766 36.6926 1.88293 144.924 -86.78 -127.061
RightUpLeg  -52.734 -15.9908 8.86177
RightLeg  45.2735 4.46149 4.4989
RightFoot  -5.93447 0.176302 -4.57739
RightToes  -1.81608e-008 0 -3.6325e-017
Spine  68.7976 2.21677 5.06137
Spine1  1.08541 5.68922 0.815914
HEad  -49.5585 -9.57924 -4.95842
LeftShoulder1  2.03664 -11.95 -5.38726
LeftArm  -16.7159 -66.0028 -50.0438
LeftForeArm  7.58279 -9.28181 0.817802
LeftHand  -0.133776 3.9124 9.46133
RightShoulder  0.605603 1.09345 5.60373
RightArm  -13.3745 64.2633 31.7502
RightForeArm  -13.0634 0.801364 2.28741
RightHand  -1.05523 8.81803 -8.97461
LeftUpLeg  -13.6734 25.5222 30.6731
LeftLeg  -4.55382 4.5879 -3.89724
LeftFoot  16.8779 6.24244 -24.9099
LeftToes  1.81866e-011 -6.13092e-011 2.52013e-011
2118
root  -62.2916 36.9049 2.20362 132.096 -86.9694 -114.772
RightUpLeg  -51.1624 -16.3416 8.2072
RightLeg  43.6535 4.39994 4.18419
RightFoot  -5.36027 0.165494 -3.8594
RightToes  -1.81608e-008 0 -3.6325e-017
Spine  71.9763 -1.25712 5.7953
Spine1  -9.46708 3.68523 -5.13253
HEad  -47.2555 -5.77408 -2.36107
LeftShoulder1  2.52927 -10.7201 -10.5015
LeftArm  -8.29113 -56.3715 -52.924
LeftForeArm  12.3098 -7.51965 -3.60098
LeftHand  -0.162903 3.61622 10.1745
RightShoulder  0.652817 0.00898048 11.4012
RightArm  0.957305 56.7873 50.5864
RightForeArm  -5.55691 2.48442 3.41959
RightHand  -0.982311 7.70517 -9.04118
LeftUpLeg  -14.2796 25.3594 30.2449
LeftLeg  -3.37097 4.05312 -3.65998
LeftFoot  16.6697 6.08757 -24.4969
LeftToes  1.81866e-011 -6.13092e-011 2.52013e-011
2119
root  -62.2599 37.0941 2.51619 125.033 -87.1901 -108.336
RightUpLeg  -49.7045 -16.4255 7.14525
RightLeg  42.2728 4.30505 3.88975
RightFoot  -4.74249 0.146393 -3.09258
RightToes  -1.81608e-008 0 -3.6325e-017
Spine  69.0597 -0.796885 5.26448
Spine1  -7.44064 3.44795 -3.80813
HEad  -49.1976 -5.30396 -2.61284
LeftShoulder1  2.5348 -9.26202 -12.8374
LeftArm  -6.6905 -51.2177 -54.8726
LeftForeArm  17.1116 -6.92317 -4.36405
LeftHand  -0.14694 4.1546 9.24561
RightShoulder  0.758956 0.176323 13.708
RightArm  4.63002 52.0353 51.454
RightForeArm  -4.4627 2.22316 4.74237
RightHand  -0.856989 7.3096 -8.1368
LeftUpLeg  -15.0706 25.2219 29.5721
LeftLeg  -1.53135 3.63012 -3.47192
LeftFoot  16.2164 5.89316 -24.1312
LeftToes  1.81866e-011 -6.13092e-011 2.52013e-011
2120
root  -62.2116 37.2858 2.90636 115.024 -87.6358 -99.3293
RightUpLeg  -47.8783 -16.854 5.69853
RightLeg  40.9048 4.21386 3.62303
RightFoot  -4.10603 0.109281 -2.17509
RightToes  -1.81608e-008 0 -3.6325e-017
Spine  66.2575 0.409693 4.26389
Spine1  -5.01587 3.42913 -0.712464
HEad  -51.4151 -4.68671 -4.05054
LeftShoulder1  2.50467 -7.63439 -15.7186
LeftArm  -6.52624 -45.6797 -56.8976
LeftForeArm  22.6788 -7.65422 -4.43461
LeftHand  0.0249985 6.67977 3.64233
RightShoulder  1.03807 1.36893 14.5155
RightArm  6.42644 46.713 49.5921
RightForeArm  -5.25079 2.11381 5.84874
RightHand  -0.696183 6.48823 -7.10823
LeftUpLeg  -15.9927 25.0472 28.6414
LeftLeg  1.18279 2.8911 -3.36964
LeftFoot  15.3574 5.568 -23.5724
LeftToes  1.81866e-011 -6.13092e-011 2.52013e-011
2121
root  -62.1343 37.399 3.29075 110.77 -87.6375 -95.9896
RightUpLeg  -46.3037 -16.0796 4.25901
RightLeg  39.8711 3.58679 2.92811
RightFoot  -3.47818 0.0406123 -0.926813
RightToes  -1.81608e-008 0 -3.6325e-017
Spine  64.0345 1.5155 3.51969
Spine1  -4.43304 3.72035 0.726834
HEad  -52.4931 -5.05167 -4.11653
LeftShoulder1  2.37639 -6.32527 -17.5248
LeftArm  -6.48143 -39.2376 -58.3557
LeftForeArm  26.6763 -8.67688 -4.77601
LeftHand  -0.0161838 5.70554 3.69274
RightShoulder  0.984785 0.951522 15.4548
RightArm  7.61805 39.1674 50.7755
RightForeArm  -5.09794 3.67813 6.12949
RightHand  -0.901428 6.85491 -8.87017
LeftUpLeg  -16.9036 25.9726 28.089
LeftLeg  4.25408 1.10888 -3.52091
LeftFoot  14.0444 5.14747 -22.9806
LeftToes  1.81866e-011 -6.13092e-011 2.52013e-011
2122
root  -62.023 37.4363 3.73235 102.585 -87.7671 -88.8297
RightUpLeg  -44.8969 -15.6914 2.6903
RightLeg  39.2718 3.07036 2.41309
RightFoot  -3.13277 -0.0350454 0.189292
RightToes  -1.81608e-008 0 -3.6325e-017
Spine  62.0608 1.72884 3.3938
Spine1  -4.25503 3.88828 0.119206
HEad  -52.7644 -5.42981 -3.07913
LeftShoulder1  2.4492 -6.22348 -18.6389
LeftArm  -6.73191 -33.9283 -56.848
LeftForeArm  27.5122 -9.34362 -5.34463
LeftHand  -0.0143034 5.7632 4.79177
RightShoulder  0.887504 0.0178308 18.8338
RightArm  9.67993 33.5673 49.5756
RightForeArm  -4.16634 4.21643 7.02196
RightHand  -0.787548 5.80217 -8.47303
LeftUpLeg  -18.4623 28.1371 26.6262
LeftLeg  8.05884 -2.46349 -3.32233
LeftFoot  11.8773 4.71421 -23.0242
LeftToes  1.81866e-011 -6.13092e-011 2.52013e-011
2123
root  -61.871 37.5066 4.36059 75.2514 -87.794 -62.785
RightUpLeg  -43.097 -16.737 1.00139
RightLeg  38.3624 3.15268 2.40248
RightFoot  -2.47111 -0.0989437 1.05894
RightToes  -1.81608e-008 0 -3.6325e-017
Spine  60.3254 1.28885 3.74746
Spine1  -4.12329 3.52678 -0.0204172
HEad  -52.6467 -5.5495 -2.10213
LeftShoulder1  2.36817 -5.5017 -19.8447
LeftArm  -7.1721 -28.531 -56.0127
LeftForeArm  28.332 -11.2305 -5.23625
LeftHand  -0.0734583 4.37684 6.59686
RightShoulder  0.715001 -0.892365 21.1846
RightArm  11.4045 27.8079 48.6665
RightForeArm  -4.10887 4.75135 7.70008
RightHand  -0.851761 5.91648 -9.0337
LeftUpLeg  -20.4012 29.8256 24.1596
LeftLeg  11.8142 -6.30619 -2.81041
LeftFoot  9.55943 4.02471 -21.8972
LeftToes  1.81866e-011 -6.13092e-011 2.52013e-011
2124
root  -61.6755 37.5 5.03454 47.0771 -87.607 -36.1918
RightUpLeg  -41.1412 -17.6522 -1.29484
RightLeg  37.8444 3.21145 2.40512
RightFoot  -2.12403 -0.202472 2.33195
RightToes  -1.81608e-008 0 -3.6325e-017
Spine  58.6066 1.23429 3.50073
Spine1  -3.77201 3.07171 0.607195
HEad  -51.9967 -6.06717 -1.99139
LeftShoulder1  2.24723 -4.61027 -21.3258
LeftArm  -5.92151 -23.7572 -54.4054
LeftForeArm  27.0984 -14.0943 -5.18773
LeftHand  -0.0962257 4.13539 7.43635
RightShoulder  0.632154 -1.30179 22.6934
RightArm  13.1323 22.2256 47.46
RightForeArm  -5.33695 5.4623 8.38165
RightHand  -0.950415 6.30003 -9.74512
LeftUpLeg  -21.9614 29.861 21.8939
LeftLeg  15.8296 -8.36274 -2.51107
LeftFoot  6.77566 3.23418 -20.3575
LeftToes  1.81866e-011 -6.13092e-011 2.52013e-011
2125
root  -61.4697 37.4371 5.70901 31.7452 -86.8867 -22.1045
RightUpLeg  -39.548 -18.3557 -3.21297
RightLeg  37.3672 3.09924 2.2702
RightFoot  -1.79891 -0.3033 3.48484
RightToes  -1.81608e-008 0 -3.6325e-017
Spine  56.5964 1.28451 3.17286
Spine1  -3.5685 2.81349 0.772287
HEad  -51.2914 -6.47639 -1.12886
LeftShoulder1  2.20443 -4.03335 -22.9732
LeftArm  -5.10734 -20.1052 -51.6792
LeftForeArm  25.5096 -16.5644 -4.76052
LeftHand  -0.119986 3.76231 7.51217
RightShoulder  0.531259 -1.71698 23.9436
RightArm  14.141 16.4994 46.65
RightForeArm  -4.32029 6.69656 8.52508
RightHand  -0.747289 4.99411 -8.59843
LeftUpLeg  -23.2289 28.0851 20.8706
LeftLeg  19.6619 -7.9311 -2.78517
LeftFoot  3.94727 2.48912 -18.5743
LeftToes  1.81866e-011 -6.13092e-011 2.52013e-011
2126
root  -61.2394 37.3057 6.4776 21.916 -85.9971 -13.6453
RightUpLeg  -37.9568 -19.0501 -5.34317
RightLeg  37.1889 2.98489 2.16219
RightFoot  -1.48327 -0.408048 4.61333
RightToes  -1.81608e-008 0 -3.6325e-017
Spine  54.6066 1.40042 2.73686
Spine1  -3.26711 2.55229 1.16709
HEad  -50.8566 -6.80136 -0.354507
LeftShoulder1  2.01447 -3.19311 -23.8439
LeftArm  -7.09904 -16.402 -50.8137
LeftForeArm  26.2253 -20.1505 -3.72648
LeftHand  -0.0530409 4.77668 5.85219
RightShoulder  0.362819 -2.32936 25.3347
RightArm  16.0935 11.1067 45.2202
RightForeArm  -5.3743 8.78753 8.71114
RightHand  -0.612636 4.5772 -7.3609
LeftUpLeg  -24.6823 26.0942 19.9186
LeftLeg  24.1924 -7.32867 -3.25957
LeftFoot  0.817779 1.78996 -16.7847
LeftToes  1.81866e-011 -6.13092e-011 2.52013e-011
2127
root  -60.9823 37.1133 7.32181 19.2325 -85.4051 -12.4564
RightUpLeg  -36.2322 -18.855 -7.55823
RightLeg  36.9435 2.67554 1.89302
RightFoot  -1.19814 -0.543177 6.02106
RightToes  -1.81608e-008 0 -3.6325e-017
Spine  52.1722 2.01396 1.91562
Spine1  -2.24921 2.45593 2.50474
HEad  -50.6946 -7.03731 0.17659
LeftShoulder1  1.81892 -2.43877 -24.3885
LeftArm  -10.3569 -13.7557 -50.3966
LeftForeArm  27.5519 -22.9159 -3.47582
LeftHand  -0.0147587 5.80533 3.50016
RightShoulder  0.245886 -2.71825 26.2912
RightArm  19.5346 6.3711 43.7792
RightForeArm  -7.96819 10.7077 8.95965
RightHand  -0.879772 6.37202 -9.01827
LeftUpLeg  -25.9676 24.8026 19.088
LeftLeg  28.9392 -6.65472 -3.63641
LeftFoot  -2.61194 1.17874 -15.0759
LeftToes  1.81866e-011 -6.13092e-011 2.52013e-011
2128
root  -60.7212 36.9606 8.27488 16.9191 -85.0085 -11.6456
RightUpLeg  -34.123 -18.6109 -9.89404
RightLeg  35.9257 2.55428 1.72848
RightFoot  -0.250586 -0.670458 6.8829
RightToes  -1.81608e-008 0 -3.6325e-017
Spine  50.0064 2.10086 1.428
Spine1  -1.75003 2.30253 2.41913
HEad  -50.283 -7.43303 0.87442
LeftShoulder1  1.7449 -2.08221 -25.0536
LeftArm  -11.902 -12.8939 -48.7666
LeftForeArm  26.2114 -23.4256 -3.64804
LeftHand  0.00341414 7.18761 2.3814
RightShoulder  0.0789107 -3.24231 27.469
RightArm  21.8014 1.46106 42.621
RightForeArm  -8.09581 12.4159 8.57527
RightHand  -0.748721 5.02128 -8.63629
LeftUpLeg  -26.7704 23.6054 17.9064
LeftLeg  32.8929 -5.69341 -3.59912
LeftFoot  -5.57668 0.622797 -11.7312
LeftToes  1.81866e-011 -6.13092e-011 2.52013e-011
